<svg xmlns="http://www.w3.org/2000/svg" width="1024" height="1024" fill="none" viewBox="0 0 1024 1024">
    <rect width="100%" height="100%" fill="#1b1c1d"/>
    <circle cx="25%" cy="25%" r="5%" fill="white" />
    <circle cx="75%" cy="25%" r="5%" fill="white" />
    <circle cx="50%" cy="75%" r="5%" fill="white" />
    <path d="M 256 256 C 256 512, 256 512, 512 512 C 768 512, 768 512, 768 256 M 512, 512 L 512 768" stroke="white" stroke-width="16" />
    <g transform="scale(5), translate(16, 46)" id="svgGroup" stroke-linecap="round" fill-rule="nonzero" fill="#fc5f5f" stroke="#1b1c1d" stroke-width="3">
        <path d="M52.965 43.857L52.965 43.857Q52.965 56.232 44.847 60.984L44.847 60.984Q40.392 63.657 32.571 64.053L32.571 64.053Q31.680 64.053 29.948 64.102Q28.215 64.152 26.136 64.201Q24.057 64.251 22.027 64.251Q19.998 64.251 18.513 64.251L18.513 64.251Q18.513 64.845 18.563 64.796Q18.612 64.746 18.612 65.290Q18.612 65.835 18.612 67.666Q18.612 69.498 18.612 73.854L18.612 73.854Q18.612 74.943 18.662 76.675Q18.711 78.408 18.909 80.190Q19.107 81.972 19.305 83.655Q19.503 85.338 19.800 86.229L19.800 86.229L5.148 86.229Q5.643 84.348 5.891 81.329Q6.138 78.309 6.237 73.854L6.237 73.854L6.237 55.638L6.237 37.422Q6.138 32.769 5.891 29.601Q5.643 26.433 5.148 24.552L5.148 24.552L32.769 24.552Q39.798 24.552 44.649 27.324L44.649 27.324Q52.965 31.977 52.965 43.857ZM39.996 44.055L39.996 44.055Q39.996 38.610 36.828 36.333L36.828 36.333Q34.353 34.452 28.611 34.452L28.611 34.452L18.909 34.452L18.909 54.054L28.611 54.054Q33.066 54.054 35.145 53.262L35.145 53.262Q40.095 51.183 39.996 44.055ZM118.107 56.331L118.107 56.331Q118.107 69.300 109.593 77.814L109.593 77.814Q101.178 86.229 85.437 86.229L85.437 86.229L61.281 86.229Q61.974 83.556 62.172 78.804L62.172 78.804Q62.469 74.052 62.469 55.341L62.469 55.341Q62.469 45.738 62.370 39.204Q62.271 32.670 62.073 29.205L62.073 29.205Q61.974 26.235 61.479 24.552L61.479 24.552L86.328 24.552Q93.753 24.552 100.386 27.076Q107.019 29.601 110.880 34.056L110.880 34.056Q118.107 42.273 118.107 56.331ZM104.445 56.232L104.445 56.232Q104.445 46.035 98.703 39.996L98.703 39.996Q94.050 35.244 85.734 35.244L85.734 35.244L75.141 35.244Q75.141 36.333 75.141 38.857Q75.141 41.382 75.042 45.342L75.042 45.342Q74.943 48.510 74.943 50.985Q74.943 53.460 74.943 55.341L74.943 55.341Q74.943 59.895 74.993 64.993Q75.042 70.092 75.141 75.933L75.141 75.933L85.338 75.933Q94.050 75.933 99.198 70.488L99.198 70.488Q104.445 64.944 104.445 56.232ZM174.834 37.323L174.834 37.323L166.914 37.323Q166.914 35.145 165.726 34.551L165.726 34.551Q165.033 34.155 162.360 34.155L162.360 34.155L142.461 34.155L142.461 49.797L150.777 49.797Q154.935 49.797 157.559 49.747Q160.182 49.698 161.469 49.599L161.469 49.599Q165.231 49.302 167.211 48.411L167.211 48.411L167.211 60.885Q163.845 59.895 150.876 59.895L150.876 59.895Q149.490 59.895 147.362 59.895Q145.233 59.895 142.164 59.994L142.164 59.994Q142.164 61.875 142.164 64.993Q142.164 68.112 142.263 72.567L142.263 72.567Q142.362 77.022 142.659 80.388Q142.956 83.754 143.649 86.229L143.649 86.229L128.997 86.229Q129.195 85.239 129.393 83.853Q129.591 82.467 129.690 80.487L129.690 80.487Q129.987 73.953 129.987 54.153L129.987 54.153Q129.987 43.461 129.888 36.976Q129.789 30.492 129.591 28.017L129.591 28.017Q129.492 27.126 129.294 26.136Q129.096 25.146 128.799 24.057L128.799 24.057Q132.759 24.057 140.481 24.354L140.481 24.354Q148.302 24.651 152.262 24.651L152.262 24.651Q159.786 24.651 165.380 24.502Q170.973 24.354 174.735 24.156L174.735 24.156Q174.636 24.948 174.587 26.878Q174.537 28.809 174.537 31.680L174.537 31.680Q174.537 32.670 174.686 34.551Q174.834 36.432 174.834 37.323Z" />
    </g>
</svg>